<?xml version="1.0" encoding="UTF-8" standalone="no"?>
<svg
   xmlns:dc="http://purl.org/dc/elements/1.1/"
   xmlns:cc="http://creativecommons.org/ns#"
   xmlns:rdf="http://www.w3.org/1999/02/22-rdf-syntax-ns#"
   xmlns:svg="http://www.w3.org/2000/svg"
   xmlns="http://www.w3.org/2000/svg"
   xmlns:sodipodi="http://sodipodi.sourceforge.net/DTD/sodipodi-0.dtd"
   xmlns:inkscape="http://www.inkscape.org/namespaces/inkscape"
   version="1.1"
   id="Layer_1"
   x="0px"
   y="0px"
   viewBox="0 0 504 504"
   style="enable-background:new 0 0 504 504;"
   xml:space="preserve"
   sodipodi:docname="newspaper.svg"
   inkscape:version="1.0.1 (3bc2e813f5, 2020-09-07)"><metadata
   id="metadata65"><rdf:RDF><cc:Work
       rdf:about=""><dc:format>image/svg+xml</dc:format><dc:type
         rdf:resource="http://purl.org/dc/dcmitype/StillImage" /></cc:Work></rdf:RDF></metadata><defs
   id="defs63" /><sodipodi:namedview
   pagecolor="#ffffff"
   bordercolor="#666666"
   borderopacity="1"
   objecttolerance="10"
   gridtolerance="10"
   guidetolerance="10"
   inkscape:pageopacity="0"
   inkscape:pageshadow="2"
   inkscape:window-width="1920"
   inkscape:window-height="1028"
   id="namedview61"
   showgrid="false"
   inkscape:zoom="1.3412698"
   inkscape:cx="208.83365"
   inkscape:cy="284.89907"
   inkscape:window-x="0"
   inkscape:window-y="30"
   inkscape:window-maximized="1"
   inkscape:current-layer="Layer_1" />
<circle
   style="fill:#FD8469;"
   cx="252"
   cy="252"
   r="252"
   id="circle2" />
<rect
   x="127.484"
   y="116.409"
   transform="matrix(-0.9613 -0.2754 0.2754 -0.9613 424.8119 563.6621)"
   style="fill:#E6E9EE;"
   width="248.993"
   height="271.192"
   id="rect4" />
<rect
   x="127.5"
   y="116.4"
   style="fill:#FFFFFF;"
   width="249"
   height="271.2"
   id="rect6" />
<g
   id="g26">
	<path
   style="fill:#324A5E;"
   d="M205.1,186.6h-9.9l-17.9-27.3c-1.1-1.6-1.8-2.8-2.2-3.6H175c0.2,1.5,0.2,3.9,0.2,7v23.9H166v-43.4   h10.5l17.2,26.4c0.8,1.2,1.5,2.4,2.2,3.5h0.1c-0.2-1-0.2-3-0.2-6v-24h9.2v43.5H205.1z"
   id="path8" />
	<path
   style="fill:#324A5E;"
   d="M241.1,186.6h-26v-43.4h25v8h-15.3v9.7H239v7.9h-14.2v9.9h16.3V186.6z"
   id="path10" />
	<path
   style="fill:#324A5E;"
   d="M304.9,143.2l-11.5,43.4h-10.8l-7.2-27.9c-0.4-1.5-0.6-3.1-0.7-4.9h-0.1c-0.2,2-0.4,3.6-0.8,4.9   l-7.4,27.9H255l-11.4-43.4h10.7l6.1,28.9c0.3,1.2,0.5,2.9,0.6,5h0.2c0.1-1.6,0.4-3.3,0.9-5.1l7.9-28.8h10.5l7.1,29.2   c0.3,1.1,0.5,2.6,0.7,4.7h0.1c0.1-1.6,0.3-3.2,0.6-4.8l6-29h9.9V143.2z"
   id="path12" />
	<path
   style="fill:#324A5E;"
   d="M308.4,185v-9.7c1.8,1.5,3.7,2.6,5.7,3.3c2.1,0.7,4.1,1.1,6.2,1.1c1.2,0,2.3-0.1,3.2-0.3   c0.9-0.2,1.7-0.5,2.3-0.9c0.6-0.4,1.1-0.9,1.4-1.4s0.5-1.1,0.5-1.7c0-0.8-0.2-1.6-0.7-2.3s-1.1-1.3-2-1.8c-0.8-0.6-1.8-1.1-3-1.6   s-2.4-1.1-3.7-1.6c-3.4-1.4-5.9-3.1-7.6-5.2c-1.7-2-2.5-4.5-2.5-7.4c0-2.3,0.5-4.2,1.4-5.8s2.1-3,3.7-4s3.4-1.8,5.4-2.3   c2.1-0.5,4.2-0.7,6.5-0.7s4.3,0.1,6,0.4c1.7,0.3,3.4,0.7,4.8,1.3v9.1c-0.7-0.5-1.5-0.9-2.4-1.3c-0.9-0.4-1.7-0.7-2.6-1   s-1.8-0.4-2.7-0.6c-0.9-0.1-1.8-0.2-2.6-0.2c-1.1,0-2.1,0.1-3,0.3s-1.7,0.5-2.3,0.9c-0.6,0.4-1.1,0.8-1.5,1.4   c-0.3,0.5-0.5,1.1-0.5,1.8s0.2,1.4,0.6,2s0.9,1.1,1.6,1.6s1.6,1,2.6,1.5s2.2,1,3.4,1.5c1.7,0.7,3.3,1.5,4.7,2.3   c1.4,0.8,2.6,1.7,3.6,2.8c1,1,1.7,2.2,2.3,3.5c0.5,1.3,0.8,2.9,0.8,4.6c0,2.4-0.5,4.5-1.4,6.1s-2.2,3-3.7,4c-1.6,1-3.4,1.8-5.5,2.2   s-4.3,0.7-6.6,0.7c-2.4,0-4.6-0.2-6.8-0.6C311.8,186.4,309.9,185.8,308.4,185z"
   id="path14" />
	<rect
   x="159.8"
   y="212.5"
   style="fill:#324A5E;"
   width="184.4"
   height="11.2"
   id="rect16" />
	<rect
   x="159.8"
   y="246.4"
   style="fill:#324A5E;"
   width="184.4"
   height="11.2"
   id="rect18" />
	<rect
   x="159.8"
   y="280.3"
   style="fill:#324A5E;"
   width="98.2"
   height="11.2"
   id="rect20" />
	<rect
   x="159.8"
   y="314.1"
   style="fill:#324A5E;"
   width="98.2"
   height="11.2"
   id="rect22" />
	<rect
   x="159.8"
   y="348"
   style="fill:#324A5E;"
   width="98.2"
   height="11.2"
   id="rect24" />
</g>
<rect
   x="274.2"
   y="280.3"
   style="fill:#FFD05B;"
   width="70"
   height="79"
   id="rect28" />
<g
   id="g30">
</g>
<g
   id="g32">
</g>
<g
   id="g34">
</g>
<g
   id="g36">
</g>
<g
   id="g38">
</g>
<g
   id="g40">
</g>
<g
   id="g42">
</g>
<g
   id="g44">
</g>
<g
   id="g46">
</g>
<g
   id="g48">
</g>
<g
   id="g50">
</g>
<g
   id="g52">
</g>
<g
   id="g54">
</g>
<g
   id="g56">
</g>
<g
   id="g58">
</g>
<path
   style="fill:#5d54a4;fill-opacity:0.682353;stroke:#5d54a4;stroke-width:0.0641183;stroke-miterlimit:4;stroke-dasharray:0.0641183, 0.0641183;stroke-dashoffset:0;stroke-opacity:0.364706"
   d="M 239.45292,503.41281 C 194.48232,500.36996 154.84059,487.93925 119.41253,465.77101 19.275674,403.11281 -24.173001,280.82639 14.228354,169.72984 43.827234,84.099181 118.38154,20.274662 207.39375,4.3646247 227.46054,0.77788777 254.51111,-0.4241559 274.49434,1.3828828 387.04317,11.560425 479.48053,96.062441 499.59932,207.16359 c 3.58966,19.82301 4.84325,47.8487 3.01627,67.43296 -7.94507,85.16732 -57.91147,160.07725 -133.43486,200.04639 -27.18113,14.38503 -57.46153,23.68923 -88.84355,27.29877 -10.00232,1.15047 -33.25674,1.98721 -40.88426,1.4711 z m 96.13759,-89.58254 c 0.41972,-1.53772 2.20619,-7.8284 3.96994,-13.97929 l 3.20682,-11.18343 16.93454,-0.20038 16.93454,-0.2004 0.024,-59.07179 0.024,-59.07181 16.32526,-57.02433 c 9.32591,-32.57559 16.02076,-57.21252 15.61506,-57.46326 -0.3906,-0.2414 -7.74741,-2.4272 -16.34847,-4.85732 l -15.63831,-4.4184 -7.8e-4,-15.09763 -7.7e-4,-15.09764 H 324.01577 271.3952 l -50.72326,-14.57925 c -27.89779,-8.018586 -50.8913,-14.411207 -51.09668,-14.20582 -0.31654,0.316536 -5.21553,16.84476 -7.70324,25.98922 l -0.76061,2.79585 h -17.11919 -17.11919 v 59.5835 59.58349 l -16.02959,55.91936 c -8.81627,30.75566 -16.029586,56.21729 -16.029586,56.58142 0,0.36413 7.129436,2.686 15.843196,5.1597 l 15.84319,4.49765 0.37279,15.21614 0.37278,15.21614 54.79881,0.41219 54.79882,0.41218 47.71598,13.88876 c 26.24378,7.63881 48.29017,13.91177 48.99197,13.93988 0.86007,0.0344 1.52474,-0.86021 2.03911,-2.74473 z"
   id="path906" /><path
   style="fill:#5d54a4;fill-opacity:0.682353;stroke:#5d54a4;stroke-width:0.0641183;stroke-miterlimit:4;stroke-dasharray:0.0641183, 0.0641183;stroke-dashoffset:0;stroke-opacity:0.364706"
   d="M 233.11564,502.59173 C 171.32033,497.01899 117.99797,472.50053 75.370342,430.05797 69.392085,424.10566 62.047375,416.26305 59.048764,412.62993 31.954545,379.80256 13.559489,341.02567 5.4165403,299.57288 1.9570306,281.96177 1.2834544,274.08773 1.3028403,251.48412 1.322145,228.97517 2.0089552,221.04807 5.43131,203.83364 18.387649,138.66335 55.937182,81.931854 111.00571,44.327191 145.02671,21.095262 183.88897,6.7545602 224.6011,2.4089603 c 15.48026,-1.65235833 43.26636,-1.66514494 56.05383,-0.025795 47.80869,6.12906 88.61502,23.0012187 126.54947,52.3242987 10.18389,7.872082 32.47815,29.868974 40.37436,39.835827 24.04783,30.353959 39.55975,61.957579 48.71874,99.258419 5.18734,21.12593 7.71303,49.99584 6.38349,72.96643 -3.74742,64.7442 -33.1404,126.55402 -80.93813,170.20289 -48.14831,43.96902 -108.36112,66.75477 -174.44881,66.01498 -6.15789,-0.0689 -12.53817,-0.24636 -14.17841,-0.39428 z m 104.25387,-93.794 c 1.16469,-4.10059 2.92814,-10.19068 3.91878,-13.53353 l 1.80117,-6.07789 16.33915,-0.25938 c 8.98653,-0.14266 16.4925,-0.42713 16.67993,-0.63216 0.18743,-0.20503 0.53188,-27.07288 0.76544,-59.70634 l 0.42466,-59.33355 9.05704,-31.62503 c 15.37889,-53.69938 23.00792,-81.55626 22.47644,-82.07116 -0.28016,-0.27141 -5.37417,-1.89457 -11.32003,-3.60703 -5.94586,-1.71246 -13.0753,-3.76924 -15.8432,-4.57064 l -5.03254,-1.45708 V 131.04426 116.16459 H 324.76272 272.88909 L 223.23374,101.98378 C 195.9233,94.184325 172.54997,87.725893 171.293,87.631707 l -2.28539,-0.171256 -4.10575,14.347319 -4.10575,14.34732 -16.96154,0.004 -16.96153,0.005 v 58.8902 58.8902 l -16.02959,56.14481 c -8.81627,30.87966 -16.029586,56.66931 -16.029586,57.31034 0,1.08367 9.023256,4.14744 26.910056,9.1371 l 4.17042,1.16337 0.48662,10.63731 c 0.26764,5.85053 0.48785,12.67934 0.48935,15.17513 l 0.003,4.5378 39.70118,0.49398 c 21.83565,0.27168 46.53093,0.49432 54.87839,0.49473 l 15.1772,7.5e-4 28.43818,8.28964 c 56.76888,16.54794 66.49435,19.26621 68.32288,19.0963 1.68657,-0.15671 2.05952,-0.87179 3.97864,-7.62854 z"
   id="path908" /><path
   style="fill:#9d65c9;fill-opacity:0.68235296;stroke:#5d54a4;stroke-width:0.0320592;stroke-miterlimit:4;stroke-dasharray:0.0320592, 0.03205920000000000;stroke-dashoffset:0;stroke-opacity:0.364706"
   d="m 249.55812,165.09649 -5.6026,-21.35093 5.00316,-0.10405 c 2.75174,-0.0572 5.0612,-0.046 5.13212,0.0249 0.28372,0.28372 6.47894,30.20474 6.48426,31.31697 0.009,1.84137 0.61006,2.4951 0.88677,0.96417 0.12538,-0.69364 2.11469,-8.26751 4.4207,-16.83082 l 4.19274,-15.56966 5.174,0.0992 5.174,0.0993 3.6704,15.28402 c 2.01872,8.40621 3.78666,15.95503 3.92876,16.77515 l 0.25837,1.49112 0.30032,-1.49112 c 0.16518,-0.82012 1.69976,-8.36894 3.41018,-16.77515 l 3.10986,-15.28402 4.77247,-0.10467 c 3.75173,-0.0823 4.73686,-0.003 4.60601,0.37278 -0.0915,0.2626 -2.65706,9.91347 -5.70116,21.44638 l -5.53472,20.96894 -5.24697,-8.8e-4 -5.24696,-8.7e-4 -3.83857,-15.00356 c -2.11121,-8.25196 -3.83067,-15.53886 -3.82101,-16.19311 0.028,-1.89975 -0.611,-1.76425 -0.86949,0.18437 -0.12961,0.97707 -1.96749,8.313 -4.08418,16.30207 l -3.84852,14.52559 -5.56367,0.10241 -5.56367,0.10241 z"
   id="path910" /><path
   style="fill:#9d65c9;fill-opacity:0.682353;stroke:#5d54a4;stroke-width:0.0320592;stroke-miterlimit:4;stroke-dasharray:0.0320592, 0.0320592;stroke-dashoffset:0;stroke-opacity:0.364706"
   d="m 316.48206,187.18667 c -1.33514,-0.16836 -3.59979,-0.708 -5.03255,-1.19919 l -2.60501,-0.89308 -0.10466,-4.55089 -0.10466,-4.55089 2.4329,1.33729 c 3.1895,1.75317 5.66718,2.37919 9.4378,2.38459 4.66243,0.007 7.19503,-1.46704 7.27342,-4.23241 0.0788,-2.7802 -1.37736,-4.06282 -7.87204,-6.93383 -8.56906,-3.78801 -11.39875,-7.03012 -11.39875,-13.0601 0,-5.86392 3.25484,-9.73846 9.84191,-11.71574 3.20715,-0.96271 8.54888,-1.14764 12.61745,-0.43682 5.14587,0.89903 4.90326,0.6291 4.90326,5.45562 0,2.24811 -0.063,4.08747 -0.14001,4.08747 -0.077,0 -1.04157,-0.39752 -2.14349,-0.88339 -5.31443,-2.34327 -11.53256,-2.27814 -14.12975,0.148 -0.89369,0.83482 -1.10746,1.3418 -1.10746,2.62637 0,1.38652 0.20469,1.78798 1.58681,3.11229 1.0341,0.99084 2.88442,2.08682 5.31213,3.14647 5.21272,2.27527 7.23698,3.4853 9.25538,5.53255 5.42859,5.5062 3.84209,15.20451 -3.06354,18.7275 -3.2027,1.63389 -10.10724,2.51002 -14.95914,1.89819 z"
   id="path912" /><path
   style="fill:#9d65c9;fill-opacity:0.682353;stroke:#5d54a4;stroke-width:0.0320592;stroke-miterlimit:4;stroke-dasharray:0.0320592, 0.0320592;stroke-dashoffset:0;stroke-opacity:0.364706"
   d="m 215.46284,164.99408 v -21.43492 h 12.30178 12.30177 v 3.72782 3.72781 h -7.64201 -7.64201 v 5.03254 5.03254 h 7.08284 7.08284 v 3.72782 3.72781 h -7.08284 -7.08284 v 5.21893 5.21894 h 8.01479 8.0148 v 3.72781 3.72781 H 228.1374 215.46284 Z"
   id="path914" /><path
   style="fill:#9d65c9;fill-opacity:0.682353;stroke:#5d54a4;stroke-width:0.0320592;stroke-miterlimit:4;stroke-dasharray:0.0320592, 0.0320592;stroke-dashoffset:0;stroke-opacity:0.364706"
   d="m 166.25574,164.99408 v -21.43492 l 5.12574,0.003 5.12574,0.003 9.69231,14.91669 9.69231,14.91669 0.0974,-15.10612 0.0974,-15.10612 h 4.2828 4.2828 v 21.63244 21.63244 l -4.71275,-0.10433 -4.71275,-0.10433 -9.95942,-15.20028 c -5.47768,-8.36016 -10.04698,-15.28784 -10.15399,-15.39485 -0.10701,-0.10701 -0.10587,6.77506 0.003,15.29348 l 0.19708,15.48804 h -4.52858 -4.52858 z"
   id="path916" /><path
   style="fill:#9d65c9;fill-opacity:0.682353;stroke:#5d54a4;stroke-width:0.0320592;stroke-miterlimit:4;stroke-dasharray:0.0320592, 0.0320592;stroke-dashoffset:0;stroke-opacity:0.364706"
   d="m 159.91847,217.92899 v -5.40533 h 92.07692 92.07692 v 5.40533 5.40532 h -92.07692 -92.07692 z"
   id="path918" /><path
   style="fill:#9d65c9;fill-opacity:0.682353;stroke:#5d54a4;stroke-width:0.0320592;stroke-miterlimit:4;stroke-dasharray:0.0320592, 0.0320592;stroke-dashoffset:0;stroke-opacity:0.364706"
   d="m 159.91847,251.85206 v -5.40532 h 92.07692 92.07692 v 5.40532 5.40533 h -92.07692 -92.07692 z"
   id="path920" /><path
   style="fill:#9d65c9;fill-opacity:0.682353;stroke:#5d54a4;stroke-width:0.0320592;stroke-miterlimit:4;stroke-dasharray:0.0320592, 0.0320592;stroke-dashoffset:0;stroke-opacity:0.364706"
   d="m 159.91847,285.77514 v -5.40532 h 49.02071 49.02071 v 5.40532 5.40533 h -49.02071 -49.02071 z"
   id="path922" /><path
   style="fill:#9d65c9;fill-opacity:0.682353;stroke:#5d54a4;stroke-width:0.0320592;stroke-miterlimit:4;stroke-dasharray:0.0320592, 0.0320592;stroke-dashoffset:0;stroke-opacity:0.364706"
   d="m 159.91847,319.69822 v -5.40533 h 49.02071 49.02071 v 5.40533 5.40532 h -49.02071 -49.02071 z"
   id="path924" /><path
   style="fill:#9d65c9;fill-opacity:0.682353;stroke:#5d54a4;stroke-width:0.0320592;stroke-miterlimit:4;stroke-dasharray:0.0320592, 0.0320592;stroke-dashoffset:0;stroke-opacity:0.364706"
   d="m 159.91847,353.62129 v -5.40532 h 49.02071 49.02071 v 5.40532 5.40533 h -49.02071 -49.02071 z"
   id="path926" /><path
   style="fill:#9d65c9;fill-opacity:0.682353;stroke:#5d54a4;stroke-width:0.0320592;stroke-miterlimit:4;stroke-dasharray:0.0320592, 0.0320592;stroke-dashoffset:0;stroke-opacity:0.364706"
   d="m 274.36225,319.69822 v -39.3284 h 34.85503 34.85503 v 39.3284 39.3284 h -34.85503 -34.85503 z"
   id="path928" /><path
   style="fill:#9d65c9;fill-opacity:0.682353;stroke:#5d54a4;stroke-width:0.0641183;stroke-miterlimit:4;stroke-dasharray:0.0641183, 0.0641183;stroke-dashoffset:0;stroke-opacity:0.364706"
   d="m 274.63524,319.59132 v -39.14201 h 34.66863 34.66864 v 39.14201 39.14202 h -34.66864 -34.66863 z"
   id="path930" /><path
   style="fill:#9d65c9;fill-opacity:0.682353;stroke:#5d54a4;stroke-width:0.0641183;stroke-miterlimit:4;stroke-dasharray:0.0641183, 0.0641183;stroke-dashoffset:0;stroke-opacity:0.364706"
   d="m 274.63524,319.59132 v -39.14201 h 34.66863 34.66864 v 39.14201 39.14202 h -34.66864 -34.66863 z"
   id="path932" /><path
   style="fill:#9d65c9;fill-opacity:0.682353;stroke:#5d54a4;stroke-width:0.0641183;stroke-miterlimit:4;stroke-dasharray:0.0641183, 0.0641183;stroke-dashoffset:0;stroke-opacity:0.364706"
   d="m 274.63524,319.59132 v -39.14201 h 34.66863 34.66864 v 39.14201 39.14202 h -34.66864 -34.66863 z"
   id="path934" /><path
   style="fill:#9d65c9;fill-opacity:0.682353;stroke:#5d54a4;stroke-width:0.0641183;stroke-miterlimit:4;stroke-dasharray:0.0641183, 0.0641183;stroke-dashoffset:0;stroke-opacity:0.364706"
   d="m 274.63524,319.59132 v -39.14201 h 34.66863 34.66864 v 39.14201 39.14202 h -34.66864 -34.66863 z"
   id="path936" /><path
   style="fill:#9d65c9;fill-opacity:0.682353;stroke:#5d54a4;stroke-width:0.0641183;stroke-miterlimit:4;stroke-dasharray:0.0641183, 0.0641183;stroke-dashoffset:0;stroke-opacity:0.364706"
   d="m 274.63524,319.59132 v -39.14201 h 34.66863 34.66864 v 39.14201 39.14202 h -34.66864 -34.66863 z"
   id="path938" /><path
   style="fill:#9d65c9;fill-opacity:0.682353;stroke:#5d54a4;stroke-width:0.0641183;stroke-miterlimit:4;stroke-dasharray:0.0641183, 0.0641183;stroke-dashoffset:0;stroke-opacity:0.364706"
   d="m 274.63524,319.59132 v -39.14201 h 34.66863 34.66864 v 39.14201 39.14202 h -34.66864 -34.66863 z"
   id="path940" /></svg>
